<svg width="143" height="42" viewBox="0 0 143 42" fill="none" xmlns="http://www.w3.org/2000/svg">
<path d="M134.452 30.9351C135.066 30.9351 135.34 31.4889 135.273 32.5967C135.22 33.2507 135.473 33.8112 136.034 34.2783C136.568 34.7321 137.255 34.959 138.096 34.959C138.95 34.959 139.637 34.7254 140.158 34.2583C140.678 33.7912 140.938 33.2106 140.938 32.5166C140.938 31.8092 140.765 31.262 140.418 30.875C140.071 30.4746 139.637 30.1209 139.117 29.814C138.596 29.4937 138.036 29.1934 137.435 28.9131C136.834 28.6195 136.274 28.2858 135.753 27.9121C134.539 27.0179 133.932 25.9168 133.932 24.6089C133.932 23.4744 134.319 22.5335 135.093 21.7861C135.92 20.972 136.995 20.5649 138.316 20.5649C139.45 20.5649 140.398 20.8919 141.159 21.5459C141.973 22.2399 142.38 23.1408 142.38 24.2485C142.46 24.7957 142.387 25.2028 142.16 25.4697C141.933 25.7233 141.666 25.8501 141.359 25.8501C141.065 25.8501 140.825 25.7166 140.638 25.4497C140.465 25.1828 140.385 24.8691 140.398 24.5088C140.425 24.1484 140.405 23.8348 140.338 23.5679C140.284 23.2876 140.171 23.034 139.998 22.8071C139.61 22.3 138.983 22.0464 138.116 22.0464C137.422 22.0464 136.915 22.2132 136.594 22.5469C136.047 23.1208 135.773 23.7214 135.773 24.3486C135.773 24.9759 135.947 25.4964 136.294 25.9102C136.641 26.3105 137.075 26.6776 137.595 27.0112C138.116 27.3315 138.676 27.6385 139.277 27.9321C139.877 28.2257 140.438 28.5594 140.958 28.9331C142.173 29.8006 142.78 30.8883 142.78 32.1963C142.78 33.4508 142.367 34.4652 141.539 35.2393C140.672 36.0534 139.464 36.4604 137.915 36.4604C136.581 36.4604 135.466 36.0667 134.572 35.2793C133.651 34.4919 133.231 33.5042 133.311 32.3164C133.364 31.3955 133.745 30.9351 134.452 30.9351Z" fill="black"/>
<path d="M127.826 27.3516C127.852 25.0293 127.365 23.4411 126.364 22.5869C125.964 22.2266 125.477 22.0464 124.903 22.0464C124.329 22.0464 123.855 22.1532 123.481 22.3667C123.108 22.5802 122.774 22.8672 122.48 23.2275C122.2 23.5879 121.96 24.0016 121.76 24.4688C121.573 24.9225 121.419 25.3896 121.299 25.8701C121.179 26.3773 121.092 26.8778 121.039 27.3716L123.782 27.4917C125.57 27.4917 126.918 27.445 127.826 27.3516ZM120.959 29.0933C120.986 30.9351 121.319 32.3431 121.96 33.3174C122.654 34.3584 123.635 34.8789 124.903 34.8789C126.064 34.8789 126.911 34.305 127.445 33.1572C127.779 32.4098 128.193 32.0361 128.687 32.0361C128.913 32.0361 129.1 32.1095 129.247 32.2563C129.407 32.4032 129.481 32.6634 129.467 33.0371C129.454 33.3975 129.32 33.7912 129.067 34.2183C128.827 34.6453 128.486 35.0257 128.046 35.3594C127.085 36.1068 125.931 36.4805 124.583 36.4805C123.128 36.4805 121.873 35.8599 120.819 34.6187C119.711 33.3107 119.157 31.7559 119.157 29.9541C119.157 28.1523 119.311 26.6909 119.618 25.5698C119.938 24.4354 120.358 23.4945 120.879 22.7471C121.893 21.2389 123.161 20.4849 124.683 20.4849C126.631 20.4849 127.999 21.2523 128.787 22.7871C129.334 23.8548 129.627 25.423 129.667 27.4917C129.681 28.0789 129.587 28.4727 129.387 28.6729C129.187 28.873 128.78 28.9731 128.166 28.9731L120.959 29.0933Z" fill="black"/>
<path d="M109.568 17.0215C109.568 16.5544 109.681 16.2074 109.908 15.9805C110.135 15.7536 110.382 15.6401 110.649 15.6401C110.916 15.6401 111.156 15.7536 111.37 15.9805C111.583 16.2074 111.663 16.5544 111.61 17.0215C111.49 18.2627 111.416 19.7041 111.39 21.3457C112.484 21.3457 113.312 21.3123 113.872 21.2456C114.433 21.1789 114.833 21.1455 115.073 21.1455C115.981 21.1188 116.435 21.4525 116.435 22.1465C116.435 22.5469 116.201 22.8271 115.734 22.9873C115.574 23.0407 115.387 23.0607 115.173 23.0474C114.96 23.034 114.726 23.0273 114.473 23.0273C114.232 23.014 113.992 23.0073 113.752 23.0073C113.338 23.0073 112.938 23.0073 112.551 23.0073C112.177 23.0073 111.843 23.014 111.55 23.0273C111.496 23.0273 111.436 23.0273 111.37 23.0273C111.37 23.054 111.37 23.0741 111.37 23.0874C111.37 28.6128 111.45 31.7292 111.61 32.4365C111.77 33.1439 111.944 33.651 112.13 33.958C112.464 34.4919 112.891 34.7588 113.412 34.7588C114.252 34.7588 114.82 34.3451 115.113 33.5176C115.233 32.8503 115.574 32.5166 116.134 32.5166C116.334 32.5166 116.508 32.6034 116.655 32.7769C116.815 32.937 116.895 33.1772 116.895 33.4976C116.895 33.8179 116.795 34.1649 116.595 34.5386C116.395 34.9123 116.128 35.2393 115.794 35.5195C115.06 36.1335 114.239 36.4404 113.332 36.4404C111.677 36.4404 110.535 35.5262 109.908 33.6978C109.681 33.0304 109.568 32.2096 109.568 31.2354V23.1675C109.288 23.1808 108.981 23.2008 108.647 23.2275C108.233 23.2409 107.92 23.1408 107.706 22.9272C107.506 22.7004 107.406 22.4668 107.406 22.2266C107.406 21.973 107.513 21.7528 107.726 21.5659C107.94 21.3657 108.26 21.2656 108.687 21.2656L109.568 21.2856V17.0215Z" fill="black"/>
<path d="M101.22 22.5269C100.779 22.2065 100.259 22.0464 99.6582 22.0464C99.071 22.0464 98.5304 22.2132 98.0366 22.5469C97.5562 22.8672 97.1491 23.321 96.8154 23.9082C96.1348 25.0827 95.7944 26.6976 95.7944 28.7529C95.7944 30.7949 96.1214 32.3031 96.7754 33.2773C97.4294 34.2516 98.3035 34.7388 99.3979 34.7388C100.599 34.7388 101.56 34.0514 102.281 32.6768C102.921 31.4489 103.242 29.9408 103.242 28.1523C103.242 25.403 102.568 23.5278 101.22 22.5269ZM99.3779 36.4404C98.6172 36.4538 97.9032 36.3003 97.2358 35.98C96.5819 35.6463 96.0146 35.1325 95.5342 34.4385C94.4798 32.9704 93.9526 30.8817 93.9526 28.1724C93.9526 25.7433 94.5199 23.8281 95.6543 22.4268C96.722 21.0921 98.1367 20.4248 99.8984 20.4248C101.38 20.4248 102.608 21.0654 103.582 22.3467C104.583 23.708 105.083 25.5765 105.083 27.9521C105.083 30.5947 104.503 32.7035 103.342 34.2783C102.301 35.693 100.979 36.4137 99.3779 36.4404Z" fill="black"/>
<path d="M89.2881 4.62939C89.208 11.2759 89.168 15.9805 89.168 18.7432C89.168 21.4925 89.168 23.5145 89.168 24.8091C89.1813 26.0903 89.1947 27.3115 89.208 28.4727C89.2347 30.9284 89.2614 32.61 89.2881 33.5176C89.3281 34.4118 89.3081 34.9456 89.228 35.1191C89.148 35.2926 89.0412 35.4395 88.9077 35.5596C88.3605 36.0534 87.78 36.1001 87.166 35.6997C86.9258 35.5396 86.7523 35.2993 86.6455 34.979C85.471 31.5356 84.0563 27.7987 82.4014 23.7681C80.7464 19.7241 79.592 16.868 78.938 15.1997C77.7502 12.1701 76.7158 9.39404 75.835 6.87158L76.0952 34.7988C76.0952 35.2126 75.9885 35.5195 75.7749 35.7197C75.5614 35.9199 75.3145 36.02 75.0342 36.02C74.7673 36.02 74.5137 35.9132 74.2735 35.6997C74.0466 35.4728 73.9398 35.1392 73.9531 34.6987C74.0866 31.0285 74.1533 26.8444 74.1533 22.1465V10.2749C74.1533 8.20622 74.14 6.42448 74.1133 4.92969C74.1133 4.43587 74.2601 4.06217 74.5537 3.80859C74.8607 3.54167 75.181 3.4082 75.5147 3.4082C76.2621 3.4082 76.7559 3.76188 76.9961 4.46924C77.2363 5.1766 77.5767 6.13086 78.0171 7.33203C78.4575 8.51986 78.9513 9.84782 79.4985 11.3159C80.0457 12.7707 80.633 14.3188 81.2603 15.9604C81.8875 17.5887 82.5148 19.217 83.1421 20.8452C83.7694 22.4601 84.3766 24.0283 84.9639 25.5498C85.5511 27.0713 86.085 28.4526 86.5654 29.6938C87.0459 30.9351 87.453 31.9961 87.7866 32.877C87.8 32.917 87.8133 32.9504 87.8267 32.9771C87.7199 30.3612 87.6332 27.5117 87.5664 24.4287C87.4997 20.6784 87.4396 17.869 87.3862 16.0005C87.3462 14.132 87.2995 12.2435 87.2461 10.335C87.2061 8.41309 87.1527 6.51123 87.086 4.62939C87.086 4.20231 87.1994 3.88867 87.4263 3.68848C87.6665 3.47493 87.9268 3.36816 88.207 3.36816C88.4873 3.36816 88.7342 3.47493 88.9478 3.68848C89.1747 3.88867 89.2881 4.20231 89.2881 4.62939Z" fill="black"/>
<path d="M68.3877 20.9453C68.6547 20.9453 68.8882 21.0454 69.0884 21.2456C69.2886 21.4458 69.3887 21.7061 69.3887 22.0264C69.3887 22.3333 69.2352 22.707 68.9283 23.1475C68.6346 23.5745 68.2676 24.035 67.8272 24.5288C67.4001 25.0093 66.9463 25.4964 66.4659 25.9902C66.0521 26.4173 65.6784 26.8177 65.3448 27.1914C65.9053 28.8997 66.8796 30.7415 68.2676 32.7168C68.6547 33.2507 68.955 33.7044 69.1685 34.0781C69.382 34.4385 69.4888 34.7454 69.4888 34.999C69.4888 35.2393 69.3687 35.4795 69.1285 35.7197C68.8882 35.96 68.6413 36.0801 68.3877 36.0801C67.8005 36.0801 67.3934 35.8132 67.1665 35.2793C66.953 34.7321 66.6794 34.1115 66.3457 33.4175C66.0121 32.7101 65.6717 32.0161 65.3247 31.3354C64.7508 30.2144 64.257 29.3001 63.8433 28.5928C63.4829 28.9398 63.0892 29.3068 62.6621 29.6938C62.0616 30.241 61.6011 30.6681 61.2808 30.9751C61.2007 31.0552 61.1206 31.1286 61.0406 31.1953V31.2354C61.0406 31.569 61.0472 31.936 61.0606 32.3364C61.0739 32.7235 61.0873 33.1172 61.1006 33.5176C61.114 33.9046 61.1206 34.2917 61.1206 34.6787C61.134 35.0524 61.0205 35.3527 60.7803 35.5796C60.5401 35.8065 60.2798 35.9199 59.9995 35.9199C59.7326 35.9199 59.4924 35.8198 59.2788 35.6196C59.0653 35.4194 58.9719 35.0057 58.9986 34.3784C59.0253 33.7378 59.0453 32.897 59.0586 31.856C59.0853 30.8149 59.0987 29.7005 59.0987 28.5127C59.1254 24.9759 59.1387 22.38 59.1387 20.7251C59.1387 19.0568 59.132 17.3151 59.1187 15.5C59.1053 13.6849 59.0853 11.9365 59.0586 10.2549C58.9786 6.47786 58.8451 3.70182 58.6582 1.92676C58.6182 1.49967 58.7183 1.18604 58.9585 0.98584C59.2121 0.772298 59.4924 0.665527 59.7994 0.665527C60.1197 0.665527 60.4066 0.772298 60.6602 0.98584C60.9271 1.18604 61.0472 1.53971 61.0205 2.04688C61.0072 2.55404 60.9938 3.20133 60.9805 3.98877C60.9805 4.7762 60.9805 5.63704 60.9805 6.57129C61.0072 9.37402 61.0205 11.4494 61.0205 12.7974C61.0205 14.132 61.0139 15.5334 61.0005 17.0015C61.0005 18.4562 60.9938 19.9243 60.9805 21.4058C60.9672 24.4354 60.9805 27.0246 61.0205 29.1733C62.3819 27.9054 63.8633 26.2438 65.4649 24.1885C66.239 23.2008 66.7328 22.4801 66.9463 22.0264C67.3067 21.3057 67.7871 20.9453 68.3877 20.9453Z" fill="black"/>
<path d="M54.2139 25.4898C54.2139 26.3439 53.8735 26.771 53.1929 26.771C52.5256 26.771 52.1919 26.3439 52.1919 25.4898C52.2186 23.2743 51.4045 22.1665 49.7495 22.1665C48.7085 22.1665 47.8477 22.8205 47.167 24.1284C46.5664 25.3162 46.2661 26.6175 46.2661 28.0322C46.2661 29.4469 46.3662 30.5547 46.5664 31.3555C46.7799 32.1563 47.0602 32.8102 47.4072 33.3174C48.0479 34.2917 48.8687 34.7788 49.8696 34.7788C50.5103 34.7788 51.0374 34.5386 51.4512 34.0581C51.8783 33.5643 52.1652 33.0505 52.312 32.5166C52.5389 31.6891 52.8859 31.2754 53.353 31.2754C53.5799 31.2887 53.7801 31.3822 53.9536 31.5557C54.1271 31.7292 54.1938 32.0495 54.1538 32.5166C54.1138 32.9704 53.967 33.4509 53.7134 33.958C53.4598 34.4652 53.1328 34.9056 52.7324 35.2793C51.8783 36.04 50.8105 36.4204 49.5293 36.4204C48.1279 36.4204 46.9535 35.7731 46.0059 34.4785C44.9782 33.0772 44.4644 31.1353 44.4644 28.6528C44.4644 26.0503 44.9915 24.0083 46.0459 22.5269C47.0202 21.1655 48.2547 20.4715 49.7495 20.4448C51.0174 20.4181 52.0651 20.8385 52.8926 21.7061C53.7734 22.6003 54.2139 23.8615 54.2139 25.4898Z" fill="black"/>
<path d="M40.3203 14.7793C40.4137 14.9928 40.4471 15.2531 40.4204 15.5601C40.4071 15.8537 40.3403 16.1073 40.2202 16.3208C40.1001 16.5343 39.96 16.7078 39.7998 16.8413C39.4928 17.0815 39.1792 17.2017 38.8589 17.2017C38.5386 17.2017 38.285 17.1683 38.0981 17.1016C37.9113 17.0215 37.7445 16.9147 37.5977 16.7812C37.2507 16.4609 37.0771 16.0405 37.0771 15.52C37.0771 14.9995 37.2106 14.6258 37.4775 14.3989C37.918 14.0119 38.3584 13.8184 38.7988 13.8184C39.5195 13.8184 40.0267 14.1387 40.3203 14.7793ZM39.6797 22.3066C39.613 23.6947 39.5462 25.0627 39.4795 26.4106C39.4128 27.7586 39.3794 28.9731 39.3794 30.0542C39.3794 31.1353 39.4128 32.2563 39.4795 33.4175C39.5462 34.5653 39.5462 35.2259 39.4795 35.3994C39.4261 35.5596 39.346 35.693 39.2393 35.7998C39.0124 36.0267 38.7655 36.1401 38.4985 36.1401C38.2316 36.1401 37.978 36.04 37.7378 35.8398C37.5109 35.6396 37.4242 35.2326 37.4775 34.6187C37.6243 32.9237 37.6978 31.2087 37.6978 29.4736C37.6978 27.7386 37.6711 26.3372 37.6177 25.2695C37.5776 24.1885 37.5443 23.3743 37.5176 22.8271C37.5042 22.2799 37.5309 21.9263 37.5977 21.7661C37.6644 21.606 37.7578 21.4792 37.8779 21.3857C38.1048 21.1722 38.3584 21.0654 38.6387 21.0654C38.9189 21.0654 39.1659 21.1655 39.3794 21.3657C39.5929 21.5659 39.693 21.8796 39.6797 22.3066Z" fill="black"/>
<path d="M23.8442 31.1152C23.8442 33.4909 24.7318 34.6787 26.5068 34.6787C27.5212 34.6787 28.3887 34.1715 29.1094 33.1572C29.75 32.2497 30.1304 31.1686 30.2505 29.9141C30.2905 28.7396 30.3105 27.6585 30.3105 26.6709C30.3105 25.2562 30.2972 23.8281 30.2705 22.3867C30.2438 21.9463 30.3573 21.6126 30.6108 21.3857C30.8644 21.1589 31.1247 21.0454 31.3916 21.0454C31.6719 21.0454 31.9188 21.1522 32.1323 21.3657C32.3459 21.5659 32.4259 21.8662 32.3726 22.2666C32.1323 24.8424 32.0122 27.3315 32.0122 29.7339C32.0122 32.1229 32.0456 33.4575 32.1123 33.7378C32.179 34.0181 32.2591 34.2516 32.3525 34.4385C32.5661 34.9189 32.6729 35.2726 32.6729 35.4995C32.6729 35.7131 32.5861 35.9132 32.4126 36.1001C32.2524 36.3003 32.0256 36.4004 31.7319 36.4004C30.731 36.4004 30.2438 35.4862 30.2705 33.6577C29.8167 34.4852 29.3963 35.0591 29.0093 35.3794C27.688 36.4738 26.2399 36.734 24.665 36.1602C22.9033 35.4928 22.0225 33.7511 22.0225 30.9351C22.0225 29.467 22.0091 28.0189 21.9824 26.5908C21.9691 25.1628 21.9691 23.7614 21.9824 22.3867C21.9958 21.9463 22.1159 21.6193 22.3428 21.4058C22.583 21.1789 22.8366 21.0654 23.1035 21.0654C23.3838 21.0654 23.6374 21.1655 23.8643 21.3657C24.0911 21.5659 24.1712 21.9062 24.1045 22.3867C24.0511 22.8672 24.0044 23.4945 23.9644 24.2686C23.9377 25.0426 23.9176 25.8368 23.9043 26.6509C23.8643 28.0122 23.8442 29.5003 23.8442 31.1152Z" fill="black"/>
<path d="M14.7554 39.2031C15.1157 39.9772 15.2959 40.4443 15.2959 40.6045C15.2959 40.778 15.2559 40.9248 15.1758 41.0449C15.0957 41.165 14.9956 41.2718 14.8755 41.3652C14.6219 41.5387 14.3883 41.6255 14.1748 41.6255C13.6943 41.6255 13.3407 41.2852 13.1138 40.6045C12.9002 39.9238 12.7067 39.3299 12.5332 38.8228C12.373 38.3156 12.2262 37.8618 12.0928 37.4614C11.9593 37.0744 11.8258 36.694 11.6924 36.3203C11.6523 36.2135 11.6056 36.1068 11.5522 36C10.7648 36.307 9.89062 36.4604 8.92969 36.4604C7.52832 36.4604 6.3138 36.1335 5.28613 35.4795C4.27181 34.8255 3.42432 33.7979 2.74365 32.3965C1.36898 29.5671 0.681641 25.1427 0.681641 19.1235C0.681641 14.2521 1.44238 10.4017 2.96387 7.57227C4.45866 4.75618 6.57406 3.34814 9.31006 3.34814C14.7954 3.34814 17.5648 8.60661 17.6182 19.1235C17.6582 27.5184 16.1434 32.8636 13.0737 35.1592C13.0871 35.2126 13.1071 35.266 13.1338 35.3193C13.3073 35.7865 13.4941 36.2536 13.6943 36.7207C14.0547 37.6149 14.4084 38.4424 14.7554 39.2031ZM8.92969 5.1499C7.99544 5.1499 7.12126 5.53695 6.30713 6.31104C5.493 7.07178 4.81901 8.10612 4.28516 9.41406C3.21745 12.0566 2.68359 15.4333 2.68359 19.5439C2.68359 28.5394 4.23177 33.5042 7.32812 34.4385C7.82194 34.5986 8.33577 34.6787 8.86963 34.6787C9.41683 34.6787 9.9707 34.6253 10.5312 34.5186C10.6647 34.4919 10.7982 34.4585 10.9316 34.4185C10.6647 33.7511 10.2977 32.8636 9.83057 31.7559C9.22998 30.3278 8.93636 29.5137 8.94971 29.3135C8.96305 29.1133 9.00977 28.9398 9.08984 28.793C9.29004 28.4727 9.54362 28.3125 9.85059 28.3125C10.4645 28.3125 10.8783 28.5994 11.0918 29.1733C11.4121 30.161 11.6924 31.0218 11.9326 31.7559C12.1328 32.4098 12.3197 32.9971 12.4932 33.5176C12.8669 33.1973 13.2205 32.7769 13.5542 32.2563C13.9946 31.5757 14.375 30.6681 14.6953 29.5337C15.3893 27.1447 15.7363 23.7347 15.7363 19.3037C15.7363 15.3265 15.2425 12.05 14.2549 9.47412C13.1338 6.59131 11.3587 5.1499 8.92969 5.1499Z" fill="black"/>
</svg>
