<svg width="109" height="109" viewBox="0 0 109 109" fill="none" xmlns="http://www.w3.org/2000/svg">
<rect x="0.5" y="0.5" width="108" height="108" rx="54" fill="white"/>
<rect x="0.5" y="0.5" width="108" height="108" rx="54" stroke="black"/>
<path d="M80.0118 28.0918C79.8946 37.8184 79.836 44.7031 79.836 48.7461C79.836 52.7695 79.836 55.7285 79.836 57.623C79.8555 59.498 79.875 61.2852 79.8946 62.9844C79.9336 66.5781 79.9727 69.0391 80.0118 70.3672C80.0704 71.6758 80.0411 72.457 79.9239 72.7109C79.8067 72.9648 79.6504 73.1797 79.4551 73.3555C78.6543 74.0781 77.8047 74.1465 76.9063 73.5605C76.5547 73.3262 76.3008 72.9746 76.1446 72.5059C74.4258 67.4668 72.3555 61.998 69.9336 56.0996C67.5118 50.1816 65.8223 46.002 64.8653 43.5605C63.127 39.127 61.6133 35.0645 60.3243 31.373L60.7051 72.2422C60.7051 72.8477 60.5489 73.2969 60.2364 73.5898C59.9239 73.8828 59.5625 74.0293 59.1524 74.0293C58.7618 74.0293 58.3907 73.873 58.0391 73.5605C57.7071 73.2285 57.5508 72.7402 57.5704 72.0957C57.7657 66.7246 57.8633 60.6016 57.8633 53.7266V36.3535C57.8633 33.3262 57.8438 30.7188 57.8047 28.5312C57.8047 27.8086 58.0196 27.2617 58.4493 26.8906C58.8985 26.5 59.3672 26.3047 59.8555 26.3047C60.9493 26.3047 61.6719 26.8223 62.0235 27.8574C62.375 28.8926 62.8731 30.2891 63.5176 32.0469C64.1621 33.7852 64.8848 35.7285 65.6856 37.877C66.4864 40.0059 67.3457 42.2715 68.2637 44.6738C69.1817 47.0566 70.0997 49.4395 71.0176 51.8223C71.9356 54.1855 72.8243 56.4805 73.6836 58.707C74.543 60.9336 75.3243 62.9551 76.0274 64.7715C76.7305 66.5879 77.3262 68.1406 77.8145 69.4297C77.834 69.4883 77.8536 69.5371 77.8731 69.5762C77.7168 65.748 77.5899 61.5781 77.4922 57.0664C77.3946 51.5781 77.3067 47.4668 77.2286 44.7324C77.17 41.998 77.1016 39.2344 77.0235 36.4414C76.9649 33.6289 76.8868 30.8457 76.7891 28.0918C76.7891 27.4668 76.9551 27.0078 77.2871 26.7148C77.6387 26.4023 78.0196 26.2461 78.4297 26.2461C78.8399 26.2461 79.2012 26.4023 79.5137 26.7148C79.8457 27.0078 80.0118 27.4668 80.0118 28.0918Z" fill="black"/>
<path d="M46.0566 78.6875C46.584 79.8203 46.8477 80.5039 46.8477 80.7383C46.8477 80.9922 46.7891 81.207 46.6719 81.3828C46.5547 81.5586 46.4082 81.7148 46.2324 81.8516C45.8613 82.1055 45.5195 82.2324 45.207 82.2324C44.5039 82.2324 43.9863 81.7344 43.6543 80.7383C43.3418 79.7422 43.0586 78.873 42.8047 78.1309C42.5703 77.3887 42.3555 76.7246 42.1602 76.1387C41.9648 75.5723 41.7695 75.0156 41.5742 74.4688C41.5156 74.3125 41.4473 74.1562 41.3691 74C40.2168 74.4492 38.9375 74.6738 37.5312 74.6738C35.4805 74.6738 33.7031 74.1953 32.1992 73.2383C30.7148 72.2812 29.4746 70.7773 28.4785 68.7266C26.4668 64.5859 25.4609 58.1113 25.4609 49.3027C25.4609 42.1738 26.5742 36.5391 28.8008 32.3984C30.9883 28.2773 34.084 26.2168 38.0879 26.2168C46.1152 26.2168 50.168 33.9121 50.2461 49.3027C50.3047 61.5879 48.0879 69.4102 43.5957 72.7695C43.6152 72.8477 43.6445 72.9258 43.6836 73.0039C43.9375 73.6875 44.2109 74.3711 44.5039 75.0547C45.0312 76.3633 45.5488 77.5742 46.0566 78.6875ZM37.5312 28.8535C36.1641 28.8535 34.8848 29.4199 33.6934 30.5527C32.502 31.666 31.5156 33.1797 30.7344 35.0938C29.1719 38.9609 28.3906 43.9023 28.3906 49.918C28.3906 63.082 30.6562 70.3477 35.1875 71.7148C35.9102 71.9492 36.6621 72.0664 37.4434 72.0664C38.2441 72.0664 39.0547 71.9883 39.875 71.832C40.0703 71.793 40.2656 71.7441 40.4609 71.6855C40.0703 70.709 39.5332 69.4102 38.8496 67.7891C37.9707 65.6992 37.541 64.5078 37.5605 64.2148C37.5801 63.9219 37.6484 63.668 37.7656 63.4531C38.0586 62.9844 38.4297 62.75 38.8789 62.75C39.7773 62.75 40.3828 63.1699 40.6953 64.0098C41.1641 65.4551 41.5742 66.7148 41.9258 67.7891C42.2188 68.7461 42.4922 69.6055 42.7461 70.3672C43.293 69.8984 43.8105 69.2832 44.2988 68.5215C44.9434 67.5254 45.5 66.1973 45.9688 64.5371C46.9844 61.041 47.4922 56.0508 47.4922 49.5664C47.4922 43.7461 46.7695 38.9512 45.3242 35.1816C43.6836 30.9629 41.0859 28.8535 37.5312 28.8535Z" fill="black"/>
</svg>
